<svg width="1140" height="293" viewBox="0 0 1140 293" fill="none" xmlns="http://www.w3.org/2000/svg">
<g filter="url(#filter0_d_2_28)">
<path d="M77.7979 154C77.7979 150.167 76.8812 147.167 75.0479 145C73.3812 142.833 70.7145 141.75 67.0479 141.75C63.5479 141.75 60.6312 142.75 58.2979 144.75C55.9645 146.75 54.6312 150.75 54.2979 156.75L5.79785 149.75C6.96452 135.917 12.9645 124.917 23.7979 116.75C34.6312 108.583 50.3812 104.5 71.0479 104.5C85.5479 104.5 97.4645 106.5 106.798 110.5C116.298 114.5 123.298 120.083 127.798 127.25C132.465 134.417 134.798 142.75 134.798 152.25V191C134.798 197.833 138.048 201.25 144.548 201.25C146.381 201.25 147.798 201 148.798 200.5L146.298 230C140.131 233 132.715 234.5 124.048 234.5C116.215 234.5 109.215 233.417 103.048 231.25C97.0479 228.917 92.2979 225.5 88.7979 221C85.4645 216.333 83.7979 210.417 83.7979 203.25V200.75H89.2979C89.1312 207.083 87.0479 212.833 83.0479 218C79.2145 223 74.0479 227 67.5479 230C61.0479 233 53.6312 234.5 45.2979 234.5C36.4645 234.5 28.9645 233.167 22.7979 230.5C16.7979 227.833 12.2145 224 9.04785 219C5.88119 214 4.29785 208.083 4.29785 201.25C4.29785 192.083 7.21452 184.667 13.0479 179C18.8812 173.167 27.2979 169.167 38.2979 167L81.7979 158L81.5479 178.25L68.0479 181.5C64.5479 182.333 62.0479 183.75 60.5479 185.75C59.0479 187.583 58.2979 189.917 58.2979 192.75C58.2979 195.417 59.1312 197.583 60.7979 199.25C62.4645 200.917 64.7979 201.75 67.7979 201.75C69.1312 201.75 70.3812 201.5 71.5479 201C72.8812 200.5 73.9645 199.75 74.7979 198.75C75.7979 197.75 76.5479 196.583 77.0479 195.25C77.5479 193.75 77.7979 192.083 77.7979 190.25V154ZM157.021 284.5V107H209.271L212.021 162L205.521 155.5C206.021 145.667 208.104 136.917 211.771 129.25C215.437 121.583 220.521 115.583 227.021 111.25C233.521 106.75 241.187 104.5 250.021 104.5C260.354 104.5 269.021 107.083 276.021 112.25C283.187 117.25 288.604 124.5 292.271 134C295.937 143.5 297.771 155.083 297.771 168.75C297.771 182.583 295.854 194.417 292.021 204.25C288.354 214.083 282.937 221.583 275.771 226.75C268.604 231.917 259.937 234.5 249.771 234.5C237.604 234.5 228.271 230.583 221.771 222.75C215.271 214.75 211.187 204.75 209.521 192.75L214.521 185.25V284.5H157.021ZM226.771 194C230.771 194 233.937 192.417 236.271 189.25C238.604 185.917 239.771 179.333 239.771 169.5C239.771 159.667 238.604 153.083 236.271 149.75C233.937 146.417 230.771 144.75 226.771 144.75C224.271 144.75 222.104 145.667 220.271 147.5C218.437 149.167 217.021 151.833 216.021 155.5C215.021 159 214.521 163.667 214.521 169.5C214.521 174.833 214.937 179.333 215.771 183C216.604 186.667 217.937 189.417 219.771 191.25C221.604 193.083 223.937 194 226.771 194ZM313.759 232V57H371.259V132.5C374.592 123.5 379.509 116.583 386.009 111.75C392.675 106.917 400.759 104.5 410.259 104.5C418.592 104.5 425.675 106.167 431.509 109.5C437.342 112.667 441.759 117.417 444.759 123.75C447.925 129.917 449.509 137.5 449.509 146.5V232H392.009V161.5C392.009 155.833 391.259 152 389.759 150C388.425 147.833 386.259 146.75 383.259 146.75C380.592 146.75 378.342 147.5 376.509 149C374.675 150.333 373.342 152.5 372.509 155.5C371.675 158.333 371.259 162 371.259 166.5V232H313.759ZM593.788 232V107H645.538L646.788 138.25C649.621 127.917 653.955 119.75 659.788 113.75C665.788 107.583 673.705 104.5 683.538 104.5C687.371 104.5 690.288 104.833 692.288 105.5C694.288 106.167 695.705 106.833 696.538 107.5L691.788 153.75C690.288 153.083 688.121 152.5 685.288 152C682.455 151.5 679.371 151.25 676.038 151.25C671.038 151.25 666.705 152.083 663.038 153.75C659.371 155.25 656.455 157.5 654.288 160.5C652.288 163.5 651.288 167.333 651.288 172V232H593.788ZM733.622 99C722.289 99 714.205 97.1667 709.372 93.5C704.705 89.8333 702.372 83.6667 702.372 75C702.372 66.1667 704.705 60 709.372 56.5C714.205 52.8333 722.289 51 733.622 51C744.955 51 752.955 52.8333 757.622 56.5C762.455 60 764.872 66.1667 764.872 75C764.872 83.6667 762.455 89.8333 757.622 93.5C752.955 97.1667 744.955 99 733.622 99ZM762.372 107V232H704.872V107H762.372ZM839.276 234.5C827.11 234.5 815.36 232.833 804.026 229.5C792.86 226.167 783.11 221.167 774.776 214.5L795.276 184.75C799.776 188.75 805.693 192.333 813.026 195.5C820.36 198.5 827.693 200 835.026 200C837.86 200 840.36 199.667 842.526 199C844.86 198.333 846.026 197.167 846.026 195.5C846.026 194.167 845.36 193.167 844.026 192.5C842.86 191.833 840.193 191.167 836.026 190.5L827.026 188.75C808.86 185.25 796.026 180.25 788.526 173.75C781.026 167.25 777.276 158.5 777.276 147.5C777.276 140.667 779.443 134 783.776 127.5C788.276 120.833 795.36 115.333 805.026 111C814.693 106.667 827.443 104.5 843.276 104.5C856.276 104.5 867.943 106.167 878.276 109.5C888.61 112.667 897.026 117.083 903.526 122.75L883.776 151.25C879.11 147.583 873.11 144.667 865.776 142.5C858.61 140.167 852.026 139 846.026 139C843.36 139 841.193 139.167 839.526 139.5C837.86 139.833 836.61 140.333 835.776 141C835.11 141.5 834.776 142.167 834.776 143C834.776 144.167 835.61 145.25 837.276 146.25C838.943 147.25 842.193 148.167 847.026 149L864.776 152C878.276 154.167 888.11 158.5 894.276 165C900.61 171.5 903.776 179.5 903.776 189C903.776 197.167 901.526 204.75 897.026 211.75C892.693 218.583 885.776 224.083 876.276 228.25C866.943 232.417 854.61 234.5 839.276 234.5ZM916.298 232V107H968.048L969.298 134.25C972.965 124.75 978.465 117.417 985.798 112.25C993.131 107.083 1002.13 104.5 1012.8 104.5C1022.3 104.5 1030.13 106.667 1036.3 111C1042.63 115.333 1047.13 121.5 1049.8 129.5C1052.46 124.167 1055.71 119.667 1059.55 116C1063.55 112.167 1068.13 109.333 1073.3 107.5C1078.63 105.5 1084.55 104.5 1091.05 104.5C1099.38 104.5 1106.46 106.167 1112.3 109.5C1118.13 112.667 1122.55 117.417 1125.55 123.75C1128.71 129.917 1130.3 137.5 1130.3 146.5V232H1072.8V161.5C1072.8 155.833 1072.05 152 1070.55 150C1069.21 148 1067.05 147 1064.05 147C1061.38 147 1059.13 147.667 1057.3 149C1055.46 150.333 1054.13 152.5 1053.3 155.5C1052.46 158.333 1052.05 162 1052.05 166.5V232H994.548V161.5C994.548 155.833 993.798 152 992.298 150C990.965 148 988.798 147 985.798 147C983.131 147 980.881 147.667 979.048 149C977.215 150.333 975.881 152.5 975.048 155.5C974.215 158.333 973.798 162 973.798 166.5V232H916.298Z" fill="white"/>
<path fill-rule="evenodd" clip-rule="evenodd" d="M483 107C474.716 107 468 113.716 468 122V126H530V141H468V159H530V173H468V191H530V206H468V217C468 225.284 474.716 232 483 232H501V266H542V232H560C568.284 232 575 225.284 575 217V206H547V191H575V173H547V159H575V141H547V126H575V122C575 113.716 568.284 107 560 107H483Z" fill="#686EDE"/>
</g>
<defs>
<filter id="filter0_d_2_28" x="0.297852" y="51" width="1134" height="241.5" filterUnits="userSpaceOnUse" color-interpolation-filters="sRGB">
<feFlood flood-opacity="0" result="BackgroundImageFix"/>
<feColorMatrix in="SourceAlpha" type="matrix" values="0 0 0 0 0 0 0 0 0 0 0 0 0 0 0 0 0 0 127 0" result="hardAlpha"/>
<feOffset dy="4"/>
<feGaussianBlur stdDeviation="2"/>
<feComposite in2="hardAlpha" operator="out"/>
<feColorMatrix type="matrix" values="0 0 0 0 0 0 0 0 0 0 0 0 0 0 0 0 0 0 0.25 0"/>
<feBlend mode="normal" in2="BackgroundImageFix" result="effect1_dropShadow_2_28"/>
<feBlend mode="normal" in="SourceGraphic" in2="effect1_dropShadow_2_28" result="shape"/>
</filter>
</defs>
</svg>
